<svg xmlns="http://www.w3.org/2000/svg" viewBox="0 0 66 80"><title>Ресурс 2</title><g id="Слой_2" data-name="Слой 2"><g id="Слой_1-2" data-name="Слой 1"><path d="M33.09,0a12.19,12.19,0,0,0-7.69,2.66c-1.78,1.36-3,2.65-5.16,3.5A2.05,2.05,0,0,0,18.94,8H0v4H66V8H47.06a2.05,2.05,0,0,0-1.31-1.84C43.61,5.31,42.3,4,40.53,2.66A11.83,11.83,0,0,0,33.09,0Zm0,4a7.07,7.07,0,0,1,5,1.84c.8.61,1.67,1.39,2.75,2.16H25.09c1.08-.77,2-1.55,2.75-2.16A7.36,7.36,0,0,1,33.09,4ZM4,14V69c0,3.33.86,6.19,2.84,8.16S11.68,80,15,80H51c3.32,0,6.16-.84,8.13-2.81S62,72.36,62,69V14Zm4,4H58V69c0,2.66-.63,4.29-1.66,5.31S53.68,76,51,76H15c-2.69,0-4.34-.63-5.37-1.66S8,71.69,8,69Zm9,11V65h4V29Zm14,0V65h4V29Zm14,0V65h4V29Z"/></g></g></svg>