<?xml version="1.0" encoding="utf-8"?>
<!-- Generator: Adobe Illustrator 22.0.1, SVG Export Plug-In . SVG Version: 6.00 Build 0)  -->
<svg version="1.1" id="Слой_1" xmlns="http://www.w3.org/2000/svg" xmlns:xlink="http://www.w3.org/1999/xlink" x="0px" y="0px"
	 viewBox="0 0 94 88" style="enable-background:new 0 0 94 88;" xml:space="preserve">
<style type="text/css">
	.st0{fill:#B0B0B0;}
</style>
<g transform="translate(0,-952.36218)">
	<path class="st0" d="M24,952.4c-1.1,0-2,0.9-2,2v12.3c-3.4,0.9-6,4-6,7.7c0,4.4,3.6,8,8,8s8-3.6,8-8c0-3.7-2.6-6.8-6-7.7v-12.3
		C26,953.3,25.1,952.4,24,952.4z M70,952.4c-1.1,0-2,0.9-2,2v12.3c-3.4,0.9-6,4-6,7.7c0,4.4,3.6,8,8,8s8-3.6,8-8
		c0-3.7-2.6-6.8-6-7.7v-12.3C72,953.3,71.1,952.4,70,952.4z M10,958.4c-5.5,0-10,4.5-10,10v61.9c0,5.5,4.5,10,10,10H84
		c5.5,0,10-4.5,10-10v-61.9c0-5.5-4.5-10-10-10h-6c-1.1,0-2,0.9-2,2s1,2,2,2h6c3.4,0,6,2.7,6,6v18H4v-18c0-3.4,2.7-6,6-6h6
		c1.1,0,2-0.9,2-2s-1-2-2-2L10,958.4z M32,958.4c-1.1,0-2,0.9-2,2s0.9,2,2,2h30c1.1,0,2-0.9,2-2s-0.9-2-2-2H32z M24,970.4
		c2.2,0,4,1.8,4,4c0,2.2-1.8,4-4,4s-4-1.8-4-4C20,972.1,21.8,970.4,24,970.4z M70,970.4c2.2,0,4,1.8,4,4c0,2.2-1.8,4-4,4s-4-1.8-4-4
		C66,972.1,67.8,970.4,70,970.4z M4,990.4h86v40c0,3.4-2.7,6-6,6H10c-3.4,0-6-2.7-6-6V990.4z"/>
</g>
</svg>
