<svg xmlns="http://www.w3.org/2000/svg" width="334.9" height="418.5" viewBox="0 0 334.9 418.5"><style>.st0{fill:none;stroke:#fff;stroke-miterlimit:10}.st1{fill:#fff}</style><path class="st1" d="M167.4.5c-45 0-81.7 36.4-82.1 81.4H35.5c-5.7 0-10.5 4.4-11 10L.5 361.8v1c0 30.4 27.9 55.2 62.3 55.2h209.3c34.3 0 62.3-24.7 62.3-55.2 0-.4 0-.7-.1-1l-24-269.9c-.5-5.7-5.3-10-11-10h-49.8c-.4-45-37.1-81.4-82.1-81.4m.1 22c32.9 0 59.7 26.6 60.1 59.4H107.3c.4-32.8 27.2-59.4 60.2-59.4m-122 81.4h39.7v35.6c0 6.1 4.9 11 11 11s11-4.9 11-11v-35.6h120.3v35.6c0 6.1 4.9 11 11 11s11-4.9 11-11v-35.6h39.7l23 259.3c-.1 18.1-18.1 32.7-40.1 32.7H62.8c-22 0-40-14.6-40.3-32.7l23-259.3z"/><path class="st0" d="M167.4.5c-45 0-81.7 36.4-82.1 81.4H35.5c-5.7 0-10.5 4.4-11 10L.5 361.8v1c0 30.4 27.9 55.2 62.3 55.2h209.3c34.3 0 62.3-24.7 62.3-55.2 0-.4 0-.7-.1-1l-24-269.9c-.5-5.7-5.3-10-11-10h-49.8c-.4-45-37.1-81.4-82.1-81.4zm.1 22c32.9 0 59.7 26.6 60.1 59.4H107.3c.4-32.8 27.2-59.4 60.2-59.4zm-122 81.4h39.7v35.6c0 6.1 4.9 11 11 11s11-4.9 11-11v-35.6h120.3v35.6c0 6.1 4.9 11 11 11s11-4.9 11-11v-35.6h39.7l23 259.3c-.1 18.1-18.1 32.7-40.1 32.7H62.8c-22 0-40-14.6-40.3-32.7l23-259.3z"/></svg>