<svg xmlns="http://www.w3.org/2000/svg" width="512" height="341.3" viewBox="0 0 512 341.3"><style>.st0{fill:#f0f0f0}.st1{fill:#d80027}.st2{fill:#0052b4}</style><path class="st0" d="M0 0h512v341.3H0z"/><path class="st1" d="M224 0v138.7H0v64h224v138.6h64V202.7h224v-64H288V0z"/><path class="st2" d="M393.8 230L512 295.7V230zm-82.1 0L512 341.3v-31.4L368.3 230zm0 111.3h146.9l-146.9-81.6z"/><path class="st0" d="M311.7 230L512 341.3v-31.4L368.3 230z"/><path class="st1" d="M311.7 230L512 341.3v-31.4L368.3 230z"/><path class="st2" d="M0 230v50.2L90.3 230zm25.5 111.3h174.8v-97.1z"/><path class="st1" d="M143.7 230L0 309.9v31.4L200.3 230z"/><path class="st2" d="M0 111.3h118.2L0 45.6zM0 0v31.5l143.7 79.8h56.6zm53.4 0l146.9 81.7V0z"/><path class="st0" d="M0 0v31.5l143.7 79.8h56.6z"/><path class="st1" d="M0 0v31.5l143.7 79.8h56.6z"/><path class="st2" d="M421.7 111.3H512V61.1zM311.7 0v97.2L486.5 0z"/><path class="st1" d="M512 0L311.7 111.3h56.6L512 31.5z"/></svg>