<svg xmlns="http://www.w3.org/2000/svg" width="40.7" height="42.4" viewBox="0 0 40.7 42.4"><style>.st0{fill:none;stroke:#000;stroke-width:.75;stroke-miterlimit:10}</style><path d="M16.5 33.8c-2.3 0-4.1 1.8-4.1 4.1s1.8 4.1 4.1 4.1 4.1-1.8 4.1-4.1c0-2.2-1.9-4.1-4.1-4.1m0 6.4c-1.3 0-2.3-1.1-2.3-2.3 0-1.2 1.1-2.3 2.3-2.3 1.2 0 2.3 1.1 2.3 2.3 0 1.3-1 2.3-2.3 2.3"/><path class="st0" d="M16.5 33.8c-2.3 0-4.1 1.8-4.1 4.1s1.8 4.1 4.1 4.1 4.1-1.8 4.1-4.1c0-2.2-1.9-4.1-4.1-4.1zm0 6.4c-1.3 0-2.3-1.1-2.3-2.3 0-1.2 1.1-2.3 2.3-2.3 1.2 0 2.3 1.1 2.3 2.3 0 1.3-1 2.3-2.3 2.3z"/><path d="M29.4 33.8c-2.3 0-4.1 1.8-4.1 4.1s1.8 4.1 4.1 4.1 4.1-1.8 4.1-4.1c0-2.2-1.9-4.1-4.1-4.1m0 6.4c-1.3 0-2.3-1.1-2.3-2.3 0-1.2 1.1-2.3 2.3-2.3 1.3 0 2.3 1.1 2.3 2.3 0 1.3-1.1 2.3-2.3 2.3"/><path class="st0" d="M29.4 33.8c-2.3 0-4.1 1.8-4.1 4.1s1.8 4.1 4.1 4.1 4.1-1.8 4.1-4.1c0-2.2-1.9-4.1-4.1-4.1zm0 6.4c-1.3 0-2.3-1.1-2.3-2.3 0-1.2 1.1-2.3 2.3-2.3 1.3 0 2.3 1.1 2.3 2.3 0 1.3-1.1 2.3-2.3 2.3z"/><path d="M38.2 6.8H6.8l-.7-4.6C6 1.2 5.1.4 4 .4H1.2C.7.4.3.8.3 1.3c0 .4.4.9.9.9h2.1c.6 0 1 .4 1.1.9l3.9 29.6.4-.1v.1h27.6c.5 0 .9-.4.9-.9 0-.4-.4-.9-.9-.9H9.9l-.2-1.5 26.6-1.8c1-.1 1.8-.9 2-1.8l2-16.4c.1-1.5-.9-2.6-2.1-2.6m.3 3l-1.8 15c-.1.5-.5.9-1 .9L9.5 27.5 7 8.5h30.4c.6 0 1.1.6 1.1 1.3"/><path class="st0" d="M38.2 6.8H6.8l-.7-4.6C6 1.2 5.1.4 4 .4H1.2C.7.4.3.8.3 1.3c0 .4.4.9.9.9h2.1c.6 0 1 .4 1.1.9l3.9 29.6.4-.1v.1h27.6c.5 0 .9-.4.9-.9 0-.4-.4-.9-.9-.9H9.9l-.2-1.5 26.6-1.8c1-.1 1.8-.9 2-1.8l2-16.4c.1-1.5-.9-2.6-2.1-2.6zm.3 3l-1.8 15c-.1.5-.5.9-1 .9L9.5 27.5 7 8.5h30.4c.6 0 1.1.6 1.1 1.3z"/></svg>