<!-- Generator: Adobe Illustrator 19.0.0, SVG Export Plug-In  -->
<svg version="1.1"
   xmlns="http://www.w3.org/2000/svg" xmlns:xlink="http://www.w3.org/1999/xlink" xmlns:a="http://ns.adobe.com/AdobeSVGViewerExtensions/3.0/"
   x="0px" y="0px" width="32px" height="32px" viewBox="0 0 32 32" style="enable-background:new 0 0 32 32;" xml:space="preserve">
<defs>
</defs>
<path d="M31.4,0.1C31.3,0,31.1,0,31,0c-0.3,0-0.5,0.1-0.7,0.3L26.6,4C23.6,1.4,19.9,0,16,0C7.6,0,0.6,6.6,0,14.9
  c0,0.3,0.1,0.5,0.3,0.8C0.5,15.9,0.8,16,1,16h2c0.5,0,1-0.4,1-0.9C4.5,8.9,9.8,4,16,4c2.9,0,5.6,1,7.7,2.8l-3.4,3.4
  c-0.3,0.3-0.4,0.7-0.2,1.1c0.2,0.4,0.5,0.6,0.9,0.6h10c0.6,0,1-0.4,1-1V1C32,0.6,31.8,0.2,31.4,0.1 M30.9,16h-2c-0.5,0-1,0.4-1,0.9
  C27.5,23.1,22.2,28,16,28c-2.8,0-5.6-1-7.7-2.8l3.5-3.5c0.3-0.3,0.4-0.7,0.2-1.1C11.8,20.2,11.4,20,11,20H1c-0.6,0-1,0.4-1,1v10
  c0,0.4,0.2,0.8,0.6,0.9C0.7,32,0.9,32,1,32c0.3,0,0.5-0.1,0.7-0.3L5.4,28l0,0.1c2.9,2.6,6.7,4,10.5,4c8.4,0,15.4-6.6,15.9-14.9
  c0-0.3-0.1-0.5-0.3-0.8C31.5,16.1,31.2,16,30.9,16"/>
</svg>