<svg id="Группа_1" data-name="Группа 1" xmlns="http://www.w3.org/2000/svg" width="35" height="22" viewBox="0 0 35 22">
  <defs>
    <style>
      .cls-1 {
        fill: #fff;
      }

      .cls-2 {
        fill: #b0b0b0;
        fill-rule: evenodd;
      }
    </style>
  </defs>
  <rect id="Прямоугольник_1" data-name="Прямоугольник 1" class="cls-1" width="35" height="22"/>
  <path id="Фигура_1" data-name="Фигура 1" class="cls-2" d="M463.136,284a0.506,0.506,0,0,0-.511.5v3.07a2.043,2.043,0,1,0,1.021,0V284.5a0.5,0.5,0,0,0-.51-0.5m11.744,0a0.5,0.5,0,0,0-.51.5v3.07a2.043,2.043,0,1,0,1.021,0V284.5a0.506,0.506,0,0,0-.511-0.5m-15.319,1.5A2.541,2.541,0,0,0,457,288.008v15.484A2.54,2.54,0,0,0,459.561,306h18.878A2.54,2.54,0,0,0,481,303.492V288.008a2.541,2.541,0,0,0-2.561-2.508h-1.524a0.5,0.5,0,1,0,0,1h1.524a1.512,1.512,0,0,1,1.54,1.508V292.5H458.021v-4.492a1.512,1.512,0,0,1,1.54-1.508h1.524a0.5,0.5,0,1,0,0-1h-1.524Zm5.609,0a0.5,0.5,0,1,0,0,1h7.66a0.5,0.5,0,1,0,0-1h-7.66Zm-2.034,3a1,1,0,1,1-1.022,1,1,1,0,0,1,1.022-1m11.744,0a1,1,0,1,1-1.021,1,1,1,0,0,1,1.021-1m-16.859,5h21.958v9.992a1.512,1.512,0,0,1-1.54,1.508H459.561a1.512,1.512,0,0,1-1.54-1.508V293.5Z" transform="translate(-457 -284)"/>
</svg>
