<?xml version="1.0" encoding="utf-8"?>
<!-- Generator: Adobe Illustrator 22.0.1, SVG Export Plug-In . SVG Version: 6.00 Build 0)  -->
<svg version="1.1" id="Layer_1" xmlns="http://www.w3.org/2000/svg" xmlns:xlink="http://www.w3.org/1999/xlink" x="0px" y="0px"
	 viewBox="0 0 33.5 33.8" style="enable-background:new 0 0 33.5 33.8;" xml:space="preserve">
<style type="text/css">
	.st0{fill:#B7B7B7;}
</style>
<g>
	<path class="st0" d="M27,4H6.5c-1.1,0-2-0.9-2-2s0.9-2,2-2H27c1.1,0,2,0.9,2,2S28.1,4,27,4z"/>
</g>
<g>
	<path class="st0" d="M31.5,14H2c-1.1,0-2-0.9-2-2s0.9-2,2-2h29.5c1.1,0,2,0.9,2,2S32.6,14,31.5,14z"/>
</g>
<g>
	<path class="st0" d="M31.5,23.8H2c-1.1,0-2-0.9-2-2s0.9-2,2-2h29.5c1.1,0,2,0.9,2,2S32.6,23.8,31.5,23.8z"/>
</g>
<g>
	<path class="st0" d="M27,33.8H6.5c-1.1,0-2-0.9-2-2s0.9-2,2-2H27c1.1,0,2,0.9,2,2S28.1,33.8,27,33.8z"/>
</g>
</svg>
