<svg xmlns="http://www.w3.org/2000/svg" width="0" height="0" aria-hidden="true" display="none">

	<symbol id="hearth" viewBox="0 -28 512.001 512">
        <path d="m256 455.515625c-7.289062 0-14.316406-2.640625-19.792969-7.4375-20.683593-18.085937-40.625-35.082031-58.21875-50.074219l-.089843-.078125c-51.582032-43.957031-96.125-81.917969-127.117188-119.3125-34.644531-41.804687-50.78125-81.441406-50.78125-124.742187 0-42.070313 14.425781-80.882813 40.617188-109.292969 26.503906-28.746094 62.871093-44.578125 102.414062-44.578125 29.554688 0 56.621094 9.34375 80.445312 27.769531 12.023438 9.300781 22.921876 20.683594 32.523438 33.960938 9.605469-13.277344 20.5-24.660157 32.527344-33.960938 23.824218-18.425781 50.890625-27.769531 80.445312-27.769531 39.539063 0 75.910156 15.832031 102.414063 44.578125 26.191406 28.410156 40.613281 67.222656 40.613281 109.292969 0 43.300781-16.132812 82.9375-50.777344 124.738281-30.992187 37.398437-75.53125 75.355469-127.105468 119.308594-17.625 15.015625-37.597657 32.039062-58.328126 50.167969-5.472656 4.789062-12.503906 7.429687-19.789062 7.429687zm-112.96875-425.523437c-31.066406 0-59.605469 12.398437-80.367188 34.914062-21.070312 22.855469-32.675781 54.449219-32.675781 88.964844 0 36.417968 13.535157 68.988281 43.882813 105.605468 29.332031 35.394532 72.960937 72.574219 123.476562 115.625l.09375.078126c17.660156 15.050781 37.679688 32.113281 58.515625 50.332031 20.960938-18.253907 41.011719-35.34375 58.707031-50.417969 50.511719-43.050781 94.136719-80.222656 123.46875-115.617188 30.34375-36.617187 43.878907-69.1875 43.878907-105.605468 0-34.515625-11.605469-66.109375-32.675781-88.964844-20.757813-22.515625-49.300782-34.914062-80.363282-34.914062-22.757812 0-43.652344 7.234374-62.101562 21.5-16.441406 12.71875-27.894532 28.796874-34.609375 40.046874-3.453125 5.785157-9.53125 9.238282-16.261719 9.238282s-12.808594-3.453125-16.261719-9.238282c-6.710937-11.25-18.164062-27.328124-34.609375-40.046874-18.449218-14.265626-39.34375-21.5-62.097656-21.5zm0 0"/>
    </symbol>

    <symbol id="no" viewBox="0 0 8 15.32">
        <path d="M4,0A4.05,4.05,0,0,0,0,4,1.24,1.24,0,0,0,2.48,4,1.55,1.55,0,0,1,4,2.48,1.54,1.54,0,0,1,5.55,4c0,.78-.34,1.17-1,1.89a5.3,5.3,0,0,0-1.82,4A1.25,1.25,0,0,0,4,11.2,1.23,1.23,0,0,0,5.24,9.94,3,3,0,0,1,6.37,7.61,4.91,4.91,0,0,0,8,4,4,4,0,0,0,4,0ZM4,12.32a1.5,1.5,0,1,0,0,3,1.5,1.5,0,0,0,0-3Z"/>
    </symbol>

    <symbol id="on" viewBox="0 0 16 15.73">
        <path class="cls-1" d="M3,11c-.09-.16-.2-.32-.27-.48a1,1,0,1,0-1.83.94,4.62,4.62,0,0,0,.37.64,1,1,0,0,0,.85.48,1,1,0,0,0,.55-.16A1,1,0,0,0,3,11Zm2.22,2c-.16-.09-.32-.18-.48-.28a1,1,0,1,0-1.12,1.72,6,6,0,0,0,.64.37,1.11,1.11,0,0,0,.48.11A1,1,0,0,0,5.21,13Zm2.6-11h.05A1,1,0,0,0,7.86,0H7.77a1,1,0,0,0-1,1.08,1,1,0,0,0,1,1Zm.52,11.61a3.57,3.57,0,0,1-.44,0H7.59a1,1,0,0,0-1.08,1,1,1,0,0,0,1,1.07h.39c.2,0,.39,0,.59,0a1,1,0,0,0,.94-1.1,1,1,0,0,0-1.08-.94ZM1.08,9.24a1,1,0,0,0,1-1.07V7.84A1,1,0,0,0,0,7.84v.44a1,1,0,0,0,1,1h.05Zm13.67-.59a1,1,0,0,0-1.26.73,4.69,4.69,0,0,1-.3.84,1,1,0,0,0,.52,1.35,1.22,1.22,0,0,0,.43.09,1.05,1.05,0,0,0,.94-.6,7.19,7.19,0,0,0,.39-1.14,1,1,0,0,0-.71-1.26ZM4.41,3a1,1,0,0,0,.53-.14l.05,0A1,1,0,1,0,4,1l-.11.05a1,1,0,0,0-.34,1.4A1,1,0,0,0,4.41,3ZM16,1.94a1,1,0,0,0-1-1h-3.7a1,1,0,0,0-1,1V5.62a1,1,0,0,0,2.06,0V4.12a6,6,0,0,1,1.16,2.17,3.07,3.07,0,0,1,.09.43,1,1,0,0,0,1,.82.87.87,0,0,0,.21,0,1,1,0,0,0,.8-1.21,5.25,5.25,0,0,0-.14-.59A8.14,8.14,0,0,0,14,3h1a1,1,0,0,0,1-1ZM11.57,12.36a4.16,4.16,0,0,1-.73.52,1,1,0,0,0,.52,1.9,1,1,0,0,0,.53-.14,7.8,7.8,0,0,0,1-.71,1,1,0,1,0-1.32-1.56ZM1.4,5.39A1,1,0,0,0,2.81,5l0-.07a1,1,0,0,0-.36-1.4,1,1,0,0,0-1.4.37L1,4A1,1,0,0,0,1.4,5.39Z"/>
    </symbol>

    <symbol id="good" viewBox="0 0 13 12.47">
        <path class="cls-1" d="M12.41.29a1.44,1.44,0,0,0-2,.3l-5.94,8L2.61,6.12A1.45,1.45,0,0,0,.29,7.84l3,4a1.4,1.4,0,0,0,1.16.58,1.47,1.47,0,0,0,1.17-.58l7.09-9.57A1.45,1.45,0,0,0,12.41.29Z"/>
    </symbol>

    <symbol id="bad" viewBox="0 0 12 11.99">
        <path class="cls-1" d="M6,3.88,2.55.45a1.45,1.45,0,0,0-2.1,0,1.48,1.48,0,0,0,0,2.12L3.87,6,.45,9.43a1.48,1.48,0,0,0,0,2.12,1.49,1.49,0,0,0,2.12,0L6,8.11l3.45,3.43a1.49,1.49,0,1,0,2.1-2.12L8.12,6l3.43-3.45A1.49,1.49,0,1,0,9.45.45Z"/>
    </symbol>

</svg>   


